<?xml version="1.0" encoding="UTF-8" standalone="no"?>
<!DOCTYPE svg PUBLIC "-//W3C//DTD SVG 20010904//EN"
              "http://www.w3.org/TR/2001/REC-SVG-20010904/DTD/svg10.dtd">

<svg xmlns="http://www.w3.org/2000/svg"
     width="0.29in" height="0.55in"
     viewBox="0 0 87 165">
  <path id="logo"
        fill="white" stroke="none" stroke-width="1"
        d="M 36.00,0.44
           C 49.14,-1.25 66.56,-0.28 78.00,6.99
             86.23,12.23 84.42,17.90 79.94,25.00
             78.76,26.85 77.08,29.62 74.82,30.19
             72.53,30.78 68.13,28.66 66.00,27.69
             60.92,25.38 54.62,22.15 49.00,21.55
             41.67,20.77 28.60,27.25 32.19,35.00
             34.73,40.48 43.58,44.27 49.00,46.32
             59.58,50.32 74.32,54.59 81.21,64.01
             88.10,73.43 88.81,87.66 83.62,98.00
             80.68,103.88 76.85,106.50 76.19,109.00
             75.40,111.97 78.19,113.97 80.08,118.00
             81.76,121.57 82.74,128.06 82.49,132.00
             82.24,135.82 81.90,140.44 80.53,144.00
             73.07,163.42 51.73,165.20 34.00,165.00
             23.82,164.88 -0.57,160.23 2.28,146.00
             2.80,143.36 4.24,141.07 6.19,139.23
             15.74,130.16 24.49,143.53 40.00,142.96
             45.82,142.74 55.55,138.95 55.55,132.00
             55.55,126.59 48.29,122.75 44.00,120.87
             30.24,114.86 18.06,114.01 7.10,102.00
             -1.26,92.83 -2.27,77.84 3.27,67.00
             6.38,60.93 10.13,58.43 10.82,56.00
             11.62,53.17 8.42,49.70 7.19,47.00
             5.20,42.65 5.02,39.66 5.00,35.00
             4.98,31.20 4.75,26.63 5.79,23.00
             9.75,9.06 22.88,2.89 36.00,0.44 Z
           M 32.04,67.69
           C 25.30,71.32 22.88,80.78 28.39,86.67
             31.90,90.42 39.19,92.91 44.00,94.80
             46.80,95.90 52.03,98.20 54.96,97.31
             61.51,95.31 63.45,84.26 59.35,79.33
             55.20,74.33 38.52,67.11 32.04,67.69 Z" />
</svg>
